HIERARCHY
ROOT Pelvis
{
	OFFSET -0.001795 -0.223333 0.028219
	CHANNELS 6 Xposition Yposition Zposition Zrotation Yrotation Xrotation 
	JOINT Left_hip
	{
		OFFSET 0.069520 -0.091406 -0.006815
		CHANNELS 3 Zrotation Yrotation Xrotation
		JOINT Left_knee
		{
			OFFSET 0.034277 -0.375199 -0.004496
			CHANNELS 3 Zrotation Yrotation Xrotation
			JOINT Left_ankle
			{
				OFFSET -0.013596 -0.397960 -0.043693
				CHANNELS 3 Zrotation Yrotation Xrotation
				JOINT Left_foot
				{
					OFFSET 0.026358 -0.055791 0.119288
					CHANNELS 3 Zrotation Yrotation Xrotation
					End Site
					{
						OFFSET 0.000000 0.000000 0.000000
					}
				}
			}
		}
	}
	JOINT Right_hip
	{
		OFFSET -0.067670 -0.090522 -0.004320
		CHANNELS 3 Zrotation Yrotation Xrotation
		JOINT Right_knee
		{
			OFFSET -0.038290 -0.382569 -0.008850
			CHANNELS 3 Zrotation Yrotation Xrotation
			JOINT Right_ankle
			{
				OFFSET 0.015774 -0.398415 -0.042312
				CHANNELS 3 Zrotation Yrotation Xrotation
				JOINT Right_foot
				{
					OFFSET -0.025372 -0.048144 0.123348
					CHANNELS 3 Zrotation Yrotation Xrotation
					End Site
					{
						OFFSET 0.000000 0.000000 0.000000
					}
				}
			}
		}
	}
	JOINT Spine1
	{
		OFFSET -0.002533 0.108963 -0.026696
		CHANNELS 3 Zrotation Yrotation Xrotation
		JOINT Spine2
		{
			OFFSET 0.005487 0.135180 0.001092
			CHANNELS 3 Zrotation Yrotation Xrotation
			JOINT Spine3
			{
				OFFSET 0.001457 0.052922 0.025425
				CHANNELS 3 Zrotation Yrotation Xrotation
				JOINT Neck
				{
					OFFSET -0.002778 0.213870 -0.042857
					CHANNELS 3 Zrotation Yrotation Xrotation
					JOINT Head
					{
						OFFSET 0.005152 0.064970 0.051349
						CHANNELS 3 Zrotation Yrotation Xrotation
						End Site
						{
							OFFSET 0.000000 0.000000 0.000000
						}
					}
				}
				JOINT Left_collar
				{
					OFFSET 0.078845 0.121749 -0.034090
					CHANNELS 3 Zrotation Yrotation Xrotation
					JOINT Left_shoulder
					{
						OFFSET 0.090977 0.030469 -0.008868
						CHANNELS 3 Zrotation Yrotation Xrotation
						JOINT Left_elbow
						{
							OFFSET 0.259612 -0.012772 -0.027456
							CHANNELS 3 Zrotation Yrotation Xrotation
							JOINT Left_wrist
							{
								OFFSET 0.249234 0.008986 -0.001171
								CHANNELS 3 Zrotation Yrotation Xrotation
								JOINT Left_palm
								{
									OFFSET 0.084042 -0.008162 -0.014945
									CHANNELS 3 Zrotation Yrotation Xrotation
									End Site
									{
										OFFSET 0.000000 0.000000 0.000000
									}
								}
							}
						}
					}
				}
				JOINT Right_collar
				{
					OFFSET -0.081759 0.118833 -0.038615
					CHANNELS 3 Zrotation Yrotation Xrotation
					JOINT Right_shoulder
					{
						OFFSET -0.096012 0.032551 -0.009143
						CHANNELS 3 Zrotation Yrotation Xrotation
						JOINT Right_elbow
						{
							OFFSET -0.253742 -0.013329 -0.021401
							CHANNELS 3 Zrotation Yrotation Xrotation
							JOINT Right_wrist
							{
								OFFSET -0.255298 0.007772 -0.005559
								CHANNELS 3 Zrotation Yrotation Xrotation
								JOINT Right_palm
								{
									OFFSET -0.084622 -0.006117 -0.010315
									CHANNELS 3 Zrotation Yrotation Xrotation
									End Site
									{
										OFFSET 0.000000 0.000000 0.000000
									}
								}
							}
						}
					}
				}
			}
		}
	}
}
MOTION
Frames: 9
Frame Time: 0.033333
0.000302 0.756066 0.026855 0.176780 0.262489 -40.389128 7.957804 5.939682 24.516960 -4.536601 -7.629194 28.930242 -1.624235 9.902677 -15.695013 -0.658565 0.000524 -0.705252 -15.646458 2.195356 14.528053 4.346388 6.278777 30.649848 4.947414 -8.318747 -8.984104 -2.098830 1.668221 -0.322308 0.556468 0.740638 -6.895611 6.163807 0.871862 -10.121062 4.565641 -1.376010 5.335240 1.552688 -1.976825 0.195042 4.216116 -11.598676 -6.061716 2.599059 4.945126 -11.406798 7.726190 -27.111791 -47.601175 124.793322 -37.661349 -91.822693 -28.035907 -3.640153 1.240584 0.000000 0.000000 0.000000 5.431254 -7.936725 -10.665261 26.993660 14.683879 -26.173162 -112.897382 36.195810 -92.390374 18.936733 27.512031 -40.367355 0.000000 0.000000 0.000000 
0.004264 0.759303 0.025536 -0.418080 -0.043091 -41.165420 7.628901 5.390841 25.806785 -5.028963 -7.196146 27.049026 1.231485 9.381470 -11.429383 -1.135871 0.698029 -1.930295 -13.751882 3.996646 14.995009 4.144862 6.120229 31.364116 3.734723 -8.831089 -6.692309 -2.016824 1.656824 0.302866 -0.640362 1.089156 -4.999315 5.452283 0.588131 -12.865008 4.570476 -0.866195 6.915399 1.487221 -0.149341 -0.396716 4.609368 -10.604156 -7.966423 3.545044 6.630567 -14.215654 17.077216 -29.833356 -58.246923 122.269614 -36.405394 -87.800352 -27.115937 0.280418 3.580128 0.000000 0.000000 0.000000 5.295633 -11.098716 -10.392385 26.947384 14.775550 -23.595247 -109.450416 39.319696 -90.821190 18.509092 31.173031 -43.035685 0.000000 0.000000 0.000000 
0.010121 0.760140 0.024900 -1.417346 -0.545108 -40.673463 7.544659 4.729842 25.158001 -4.447570 -8.149771 24.798314 1.163198 8.823709 -8.920774 -1.364958 0.607917 -2.447640 -13.607803 3.630554 13.250923 6.055309 4.734896 35.098941 2.408738 -10.132498 -4.912917 -1.624245 2.008580 0.324157 -2.230721 0.588266 -1.792000 5.203239 1.853087 -13.497740 5.236418 -0.217230 8.436961 3.208457 3.104930 -1.018804 4.980902 -10.341747 -7.217727 4.586326 6.974149 -15.495502 22.459521 -31.910519 -65.969348 122.515773 -36.020520 -86.210118 -28.829621 3.264275 7.170284 0.000000 0.000000 0.000000 5.804977 -11.672473 -12.759824 27.648315 14.978057 -21.869872 -107.093067 40.990018 -88.342309 15.930380 31.663256 -45.724542 0.000000 0.000000 0.000000 
0.014881 0.765134 0.022759 -1.875529 -0.703973 -42.275512 6.704696 5.883281 26.815983 -4.018700 -8.299371 23.572832 1.685192 9.120698 -8.818740 -1.400913 0.404726 -2.256261 -14.757582 5.069316 14.356958 6.051261 3.992418 36.572033 3.181009 -10.195761 -2.100649 -1.385371 2.829445 0.700062 -1.605257 1.123865 0.218257 6.031866 2.149428 -13.849239 4.745147 -0.515551 9.626729 2.941450 4.060680 -3.205087 5.239130 -12.236753 -8.876683 4.863593 6.668858 -16.377819 26.524354 -32.532319 -69.521138 119.582317 -34.751334 -83.133189 -31.105063 4.339800 8.249878 0.000000 0.000000 0.000000 6.412433 -10.280505 -14.066263 28.135263 14.339271 -23.418366 -106.600348 39.432392 -86.086424 15.099925 32.740104 -47.048736 0.000000 0.000000 0.000000 
0.019893 0.767350 0.020781 -1.885326 -0.279600 -41.906188 6.593242 5.937096 27.663579 -3.776334 -9.069527 21.664736 1.415894 8.602785 -8.504119 -0.602676 0.065461 -2.173876 -14.503687 4.390166 14.375564 6.276878 3.129663 38.035074 4.181363 -10.076778 1.626776 -1.454653 2.510512 0.015799 -2.113913 0.840549 0.006670 6.725236 1.489816 -11.965594 4.707884 -0.355564 9.706862 2.999405 4.123543 -1.737722 4.813636 -13.960843 -7.463291 5.669684 6.748059 -15.713774 27.669807 -32.054130 -69.509725 117.076133 -36.196185 -80.513382 -30.095745 4.866676 8.246583 0.000000 0.000000 0.000000 5.930562 -10.296786 -14.278574 28.011221 14.171155 -22.585693 -106.760275 39.497020 -85.402327 14.559237 31.835098 -46.108432 0.000000 0.000000 0.000000 
0.024613 0.766243 0.018967 -2.454635 -0.289030 -41.775263 7.637517 5.135094 28.284656 -3.940348 -10.328472 20.751682 1.706088 9.085882 -8.719370 -0.449684 -0.292612 -2.324357 -14.754080 4.092510 13.114455 7.707599 3.345062 39.180209 4.504021 -9.418968 4.554038 -1.174160 2.704994 -0.416920 -2.258588 0.086693 0.323941 7.217854 1.353293 -11.429878 4.786174 -0.574662 10.191567 4.312027 2.883020 0.349129 4.541591 -16.053793 -6.258477 5.188653 6.830523 -16.192914 28.051780 -30.709191 -69.775936 115.228448 -35.666357 -79.295690 -30.534815 5.875773 7.666784 0.000000 0.000000 0.000000 6.240311 -10.815523 -13.674941 27.437431 13.859487 -22.689957 -107.782070 39.912777 -86.548518 15.578023 30.801904 -44.694435 0.000000 0.000000 0.000000 
0.029134 0.765099 0.017521 -2.941230 -0.217312 -40.601843 7.610698 5.102632 27.350559 -4.709446 -9.911211 20.554510 2.139895 9.470215 -9.485465 -0.686321 -0.550051 -2.202589 -14.958914 3.857679 12.154347 7.788387 3.249193 38.708910 4.705960 -9.675138 6.017266 -1.619106 2.904155 -0.594702 -2.595863 -0.735897 1.151952 7.070872 1.655871 -12.271346 4.695887 -0.948057 10.697424 4.704305 3.045722 -0.100211 4.495587 -15.861337 -6.327716 4.924166 6.122234 -16.791800 28.285460 -30.267696 -70.601456 114.940522 -34.868753 -78.338858 -29.796343 6.623235 8.871582 0.000000 0.000000 0.000000 6.725180 -10.265585 -13.235537 27.073075 13.254093 -22.878281 -108.498413 39.867535 -87.527861 15.843505 32.179382 -45.095330 0.000000 0.000000 0.000000 
0.033378 0.764307 0.015543 -3.645029 -0.382989 -39.620166 7.775669 5.630778 27.075829 -5.008148 -9.326895 19.651435 2.978384 10.196551 -10.347753 -0.668055 -0.474464 -2.300544 -15.168023 3.037691 11.055103 8.103808 2.159101 39.566365 4.837147 -9.578367 7.143727 -1.702865 2.787748 -0.556080 -2.485114 -0.692541 1.888466 6.826024 2.102304 -12.914053 4.459224 -0.900143 11.106781 4.879309 3.501534 0.573859 4.673342 -15.686099 -6.652497 5.043913 5.102951 -16.561988 28.991225 -30.056321 -70.882095 115.233136 -34.277327 -77.948483 -28.596103 7.395468 9.414799 0.000000 0.000000 0.000000 7.050193 -9.637226 -12.470041 27.076712 12.009927 -23.143690 -108.858781 39.897911 -87.866458 15.675503 32.514639 -45.572528 0.000000 0.000000 0.000000 
0.037699 0.762284 0.013720 -4.604956 -0.806976 -38.841341 8.369145 5.977639 27.006822 -4.759936 -9.410739 18.376005 2.861410 10.641207 -10.604683 -0.195528 -0.473268 -2.405579 -15.575454 3.073331 10.045898 8.272508 2.238025 39.948797 5.624836 -8.946098 6.927404 -1.625719 2.612151 -0.409540 -2.051137 -0.804217 2.583428 6.967225 2.130075 -12.686648 4.331555 -0.961434 11.301267 5.319547 3.898631 1.352605 4.822720 -15.979753 -6.470639 5.207781 5.094841 -16.447596 29.043189 -29.327027 -70.213641 116.627153 -33.017256 -78.541066 -27.539210 7.511799 9.947969 0.000000 0.000000 0.000000 7.831674 -9.949744 -12.245242 26.814408 10.578706 -23.565581 -109.856461 39.596801 -88.252347 15.421336 31.941960 -45.332224 0.000000 0.000000 0.000000 
